<svg version="1" xmlns="http://www.w3.org/2000/svg" width="533.333" height="533.333" viewBox="0 0 400.000000 400.000000"><path d="M63.3 1.1c-2.8.5-8.2 2-12 3.4-24 9.1-40 25.9-48.4 51l-2.4 7L.3 198C.1 330.3.1 333.7 2.1 341c7.1 27 27.4 48.1 53.8 56.2l7.6 2.3 134 .2c139.7.3 136.4.3 150-3.7 8-2.4 21.1-10.2 28-16.7 11.3-10.5 20-26.3 23.3-42.3.9-4.5.9-267 0-273-4-25.8-23.5-49.5-48.5-59-5.4-2-7.4-2.5-15.3-4-5.9-1.1-264.9-1-271.7.1zm149.3 27.8c9.5 4.2 16.2 11.9 19.8 22.5 6 17.7-2.4 39.1-18.3 46.6l-4.8 2.2-.2 17.2-.2 17.1 6.8 1.6c14.3 3.5 28.6 12.9 37.9 24.8l4.5 5.9 7.2-4.3c4-2.3 12.1-7.1 18.1-10.7l10.9-6.4v-7.7c-.2-16.2 7.3-29.2 20.5-35.4 17.9-8.4 38.3 1.3 45.2 21.6 6.3 18.8-2 39.5-19 47.5-3.5 1.6-6.5 2.1-13 2.1-9.4 0-14.4-1.8-21-7.5-4.1-3.5-4.9-3.6-8.1-1.2-1.3 1-3.1 2.2-3.9 2.5-.8.4-3.5 2-6.1 3.5-2.5 1.5-8.4 4.9-13.3 7.7-9.9 5.6-9.2 3.9-6.2 17.5 1.9 8.1 1.5 28.1-.7 36-2.5 8.9-5.5 16.2-9.1 22.2l-3.3 5.6 4.6 4.9c2.5 2.7 7.8 8.4 11.6 12.7 3.9 4.4 8.4 9.4 10.1 11.3l3.1 3.3 4.9-2.2c7.3-3.3 18.1-3.2 25.4.3 23 11 28 43.2 9.6 62.1-6.9 7.2-12.2 9.3-23.1 9.3-8.1 0-9.5-.3-14.4-3-6.5-3.6-12.5-10.2-16-17.5-2.2-4.8-2.6-6.8-2.6-16 0-7.9.5-11.6 1.8-14.9l1.8-4.4-2.8-3c-1.5-1.7-3.5-3.8-4.3-4.7-12.5-13.8-17.9-19.7-19.7-21.8l-2.1-2.5-6.4 4.1c-3.5 2.2-8.8 5.2-11.8 6.5-5 2.2-7.3 2.9-13.5 4.3-5 1.2-19.1 1-25.3-.2-7.6-1.6-19.1-6.8-25.8-11.6l-4.5-3.2-3.7 4c-2 2.3-7.7 8.5-12.6 13.8-13.8 15-13 13.8-11.2 19.4 6.5 19.4-1.3 40.1-17.9 48.2-6.7 3.3-17.8 3.7-25.1.9-20.7-7.9-29.1-36.4-16.7-56.3 6.7-10.6 16.4-16.1 28.3-16.1 6.9 0 9.2.6 16.2 4.2.6.3 27.5-28.6 29.1-31.2.4-.8-.7-3.7-2.7-7.2-4.1-6.8-9.2-21.5-10.1-29.3-.4-3-.7-9.4-.7-14.2l.1-8.8-3.7-1c-2-.5-10.9-3.2-19.7-5.9l-16-4.8-1.5 2.1c-3.8 5.3-8.6 9.7-13.8 12.8-5.2 2.9-6.4 3.2-14.2 3.2-10.2 0-15.5-2-22.8-8.8-16.7-15.6-15.4-44.7 2.7-58.7 21-16.3 50-2 53.4 26.4.3 2.1.7 4 .8 4.1.4.4 34.1 10.5 37.4 11.3 1.6.3 2.6-.7 4.9-5.4 10.6-21.2 26.2-34.4 47.4-40.2l6.6-1.8.1-15.9c0-8.7-.1-16.4-.3-17.1-.2-.7-2.3-2.1-4.6-3.3-17.7-8.5-25.2-32.1-16.5-51.1 7.9-17.2 26.5-25 42.5-18z"/></svg>